<svg xmlns="http://www.w3.org/2000/svg" viewBox="0 0 24 24" fill="#FFFFFF" width="24" height="24">
  <path d="M12 0C5.373 0 0 5.373 0 12c0 5.302 3.438 9.8 8.207 11.385.6.111.793-.261.793-.582 0-.287-.011-1.045-.015-2.053-3.338.724-4.042-1.64-4.042-1.64-.546-1.387-1.333-1.756-1.333-1.756-1.088-.744.082-.729.082-.729 1.205.085 1.839 1.236 1.839 1.236 1.07 1.832 2.806 1.303 3.493.997.108-.776.419-1.303.763-1.604-2.665-.301-5.467-1.332-5.467-5.93 0-1.312.468-2.38 1.235-3.22-.124-.301-.537-1.522.117-3.171 0 0 1.007-.322 3.3 1.23.958-.266 1.982-.399 3.002-.404 1.02.005 2.044.138 3.004.404 2.291-1.552 3.296-1.23 3.296-1.23.657 1.649.244 2.871.12 3.171.77.84 1.233 1.908 1.233 3.22 0 4.609-2.806 5.625-5.478 5.92.43.369.815 1.104.815 2.223 0 1.605-.015 2.896-.015 3.287 0 .322.192.699.801.581C20.566 21.796 24 17.298 24 12c0-6.627-5.373-12-12-12" />
</svg>
